<?xml version="1.0" encoding="utf-8"?>
<!-- Generator: Adobe Illustrator 14.0.0, SVG Export Plug-In  -->
<!DOCTYPE svg PUBLIC "-//W3C//DTD SVG 1.1//EN" "http://www.w3.org/Graphics/SVG/1.1/DTD/svg11.dtd" [
	<!ENTITY ns_flows "http://ns.adobe.com/Flows/1.0/">
]>
<svg version="1.1"
	 xmlns="http://www.w3.org/2000/svg" xmlns:xlink="http://www.w3.org/1999/xlink" xmlns:a="http://ns.adobe.com/AdobeSVGViewerExtensions/3.0/"
	 x="0px" y="0px" width="804px" height="154px" viewBox="-5.396 -7.737 804 154" enable-background="new -5.396 -7.737 804 154"
	 xml:space="preserve">
<defs>
</defs>
<path fill="#F7941E" d="M197.226,42.528C230.603,58.126,304.13,68.171,304.13,68.171s-79.576,18.441-108.249,35.745
	C179.612,113.73,188.379,38.398,197.226,42.528z"/>
<path fill="#F7941E" d="M156.04,136.947c0,0,141.9,20.564,180.868-38.51c0,0-85.95,38.863-145.267,6.689
	C191.641,105.126,179.53,130.824,156.04,136.947z"/>
<path fill="#F7941E" d="M151.741,3.954c0,0,145.273-22.248,185.167,41.665c0,0-87.992-42.045-148.721-7.235
	C188.187,38.384,175.789,10.579,151.741,3.954z"/>
<path fill="#FFFFFF" d="M173.574,86.738c0.524-7.816-11.699-34.894-21.687-35.237c-15.912-0.547-45.781,45.204-45.781,45.204
	s-31.963-48.68-48.049-45.503c-9.09,1.796-21.112,23.052-21.112,35.026c0,13.658,25.508,54.187,25.508,54.187l-40.464-0.301
	c0,0-60.539-51.591,19.284-133.137C56.591-8.672,72.72,6.895,72.72,6.895l33.386,32.032L139.43,6.895c0,0,15.976-15.268,33.97,0
	c80.975,68.708,19.829,133.218,19.829,133.218l-41.337,0.301C151.892,140.414,172.151,107.914,173.574,86.738z"/>
<path fill="#FFFFFF" d="M341.691,83.748h-4.783V56.667h4.783V83.748z"/>
<path fill="#FFFFFF" d="M395.61,83.748h-4.894L371.72,62.371v21.377h-4.507V56.667h4.92l18.94,21.398V56.667h4.536V83.748z"/>
<path fill="#FFFFFF" d="M448.978,83.748h-4.894L425.09,62.371v21.377h-4.509V56.667h4.92l18.939,21.398V56.667h4.537V83.748z"/>
<path fill="#FFFFFF" d="M489.616,56.193c2.494,0,4.798,0.337,6.914,1.008c2.116,0.674,3.941,1.622,5.472,2.843
	c1.527,1.223,2.724,2.696,3.586,4.418c0.861,1.723,1.291,3.633,1.291,5.736c0,2.073-0.42,3.967-1.264,5.684
	c-0.844,1.715-2.033,3.195-3.573,4.437c-1.54,1.244-3.361,2.204-5.472,2.885c-2.107,0.68-4.423,1.019-6.954,1.019
	c-2.546,0-4.88-0.336-6.996-1.008c-2.116-0.673-3.938-1.624-5.469-2.854c-1.53-1.228-2.724-2.708-3.573-4.438
	c-0.853-1.729-1.279-3.638-1.279-5.724c0-2.116,0.43-4.039,1.292-5.768c0.861-1.73,2.066-3.205,3.616-4.428
	c1.546-1.222,3.37-2.162,5.469-2.82C484.773,56.523,487.085,56.193,489.616,56.193z M489.561,81.153c1.797,0,3.453-0.25,4.975-0.751
	c1.521-0.499,2.831-1.221,3.933-2.163c1.098-0.939,1.957-2.087,2.57-3.438c0.613-1.354,0.92-2.887,0.92-4.603
	c0-1.746-0.31-3.29-0.936-4.635c-0.622-1.346-1.479-2.485-2.57-3.42c-1.089-0.932-2.386-1.64-3.889-2.121
	c-1.503-0.481-3.132-0.719-4.893-0.719c-1.779,0-3.436,0.247-4.976,0.74c-1.539,0.495-2.855,1.209-3.944,2.142
	c-1.092,0.935-1.947,2.073-2.57,3.42c-0.622,1.345-0.936,2.875-0.936,4.593c0,1.715,0.304,3.248,0.908,4.603
	c0.604,1.351,1.457,2.499,2.555,3.438c1.102,0.942,2.402,1.664,3.905,2.163C486.117,80.903,487.766,81.153,489.561,81.153z"/>
<path fill="#FFFFFF" d="M559.505,56.667L545.43,83.748h-4.947l-14.075-27.081h5.141l11.41,23.21l11.435-23.21H559.505z"/>
<path fill="#FFFFFF" d="M610.51,83.748h-5.417l-4.177-8.237H585.77l-4.015,8.237h-5.03l13.854-27.081h5.196L610.51,83.748z
	 M599.514,72.647l-6.376-12.542l-6.076,12.542H599.514z"/>
<path fill="#FFFFFF" d="M657.141,59.879h-11.983v23.869h-4.785V59.879H628.5v-3.212h28.642V59.879z"/>
<path fill="#FFFFFF" d="M684.59,83.748h-4.785V56.667h4.785V83.748z"/>
<path fill="#FFFFFF" d="M725.777,56.193c2.493,0,4.797,0.337,6.913,1.008c2.116,0.674,3.941,1.622,5.472,2.843
	c1.527,1.223,2.724,2.696,3.586,4.418s1.291,3.633,1.291,5.736c0,2.073-0.42,3.967-1.264,5.684
	c-0.844,1.715-2.033,3.195-3.573,4.437c-1.54,1.244-3.361,2.204-5.469,2.885c-2.11,0.68-4.426,1.019-6.956,1.019
	c-2.546,0-4.88-0.336-6.997-1.008c-2.116-0.673-3.938-1.624-5.469-2.854c-1.53-1.228-2.724-2.708-3.573-4.438
	c-0.853-1.729-1.278-3.638-1.278-5.724c0-2.116,0.429-4.039,1.291-5.768c0.861-1.73,2.067-3.205,3.616-4.428
	c1.546-1.222,3.371-2.162,5.469-2.82C720.933,56.523,723.25,56.193,725.777,56.193z M725.721,81.153c1.798,0,3.454-0.25,4.976-0.751
	c1.521-0.499,2.831-1.221,3.932-2.163c1.099-0.939,1.957-2.087,2.57-3.438c0.613-1.354,0.92-2.887,0.92-4.603
	c0-1.746-0.31-3.29-0.936-4.635c-0.622-1.346-1.478-2.485-2.57-3.42c-1.089-0.932-2.386-1.64-3.889-2.121
	c-1.503-0.481-3.132-0.719-4.893-0.719c-1.779,0-3.436,0.247-4.975,0.74c-1.54,0.495-2.855,1.209-3.944,2.142
	c-1.092,0.935-1.948,2.073-2.57,3.42c-0.623,1.345-0.936,2.875-0.936,4.593c0,1.715,0.304,3.248,0.907,4.603
	c0.604,1.351,1.457,2.499,2.556,3.438c1.101,0.942,2.401,1.664,3.904,2.163C722.277,80.903,723.927,81.153,725.721,81.153z"/>
<path fill="#FFFFFF" d="M794.731,83.748h-4.893l-18.995-21.377v21.377h-4.509V56.667h4.92l18.939,21.398V56.667h4.537V83.748z"/>
</svg>
